<svg xmlns="http://www.w3.org/2000/svg" xmlns:xlink="http://www.w3.org/1999/xlink" width="32" height="32" viewBox="0 0 32 32">
  <defs>
    <clipPath id="clip-path">
      <rect id="長方形_119" data-name="長方形 119" width="32" height="32" fill="#fff"/>
    </clipPath>
  </defs>
  <g id="favicon" clip-path="url(#clip-path)">
    <g id="グループ_63" data-name="グループ 63" transform="translate(2 0.26)">
      <path id="パス_10" data-name="パス 10" d="M16,31.478a16.207,16.207,0,0,1-6.556-1.384A15.9,15.9,0,0,1,2.577,24.3a15.519,15.519,0,0,1,0-17.128A15.9,15.9,0,0,1,9.444,1.383,16.222,16.222,0,0,1,26.57,3.912a3.2,3.2,0,1,1-4.183,4.844,9.707,9.707,0,0,0-4.941-2.251,9.832,9.832,0,0,0-5.415.732A9.515,9.515,0,0,0,7.92,10.7a9.119,9.119,0,0,0,0,10.08,9.515,9.515,0,0,0,4.112,3.461,9.833,9.833,0,0,0,5.415.732,9.707,9.707,0,0,0,4.941-2.251,3.2,3.2,0,0,1,4.183,4.844A16.1,16.1,0,0,1,18.379,31.3,16.321,16.321,0,0,1,16,31.478Z" transform="translate(0 0.001)" fill="#05879e"/>
      <path id="パス_11" data-name="パス 11" d="M18.966,30.219a2.56,2.56,0,0,1-2.114-4l6.4-9.4a2.56,2.56,0,0,1,4.232,0l6.4,9.4A2.56,2.56,0,0,1,29.659,29.1l-4.288-6.3-4.288,6.3A2.557,2.557,0,0,1,18.966,30.219Z" transform="translate(-5.696 -5.649)" fill="#6a6a6a"/>
    </g>
  </g>
</svg>
